<?xml version="1.0" encoding="UTF-8"?>
<svg id="Layer_1" xmlns="http://www.w3.org/2000/svg" version="1.1" viewBox="0 0 125.29 124">
  <!-- Generator: Adobe Illustrator 30.2.1, SVG Export Plug-In . SVG Version: 2.1.1 Build 1)  -->
  <defs>
    <style>
      .st0 {
        fill: #fff;
      }

      .st1 {
        fill: #00503b;
      }
    </style>
  </defs>
  <rect class="st1" width="125.29" height="124" rx="31.92" ry="31.92"/>
  <g>
    <polygon class="st0" points="69.55 55.7 69.55 32.38 81.68 25.35 89.51 30.74 89.51 44.11 89.51 63.33 89.51 63.75 57.07 82.53 57.07 97.24 46.43 97.24 37.11 97.24 26.46 97.24 26.46 80.74 26.51 80.71 26.46 80.71 69.55 55.7"/>
    <polygon class="st0" points="57.07 30.74 49.25 26.28 37.11 33.16 37.11 51.16 26.46 57.32 26.46 74.38 57.07 56.62 57.07 30.74"/>
    <polygon class="st0" points="91.01 68.45 69.55 80.93 69.55 97.24 78.87 97.24 89.51 97.24 98.83 97.24 98.83 72.9 91.01 68.45"/>
  </g>
</svg>