<?xml version="1.0" encoding="UTF-8"?>
<svg id="Layer_1" xmlns="http://www.w3.org/2000/svg" version="1.1" viewBox="0 0 466.67 164.89">
  <!-- Generator: Adobe Illustrator 30.2.1, SVG Export Plug-In . SVG Version: 2.1.1 Build 1)  -->
  <defs>
    <style>
      .st0 {
        fill: #fff;
      }
    </style>
  </defs>
  <rect x="21.15" y="20.44" width="125.29" height="124" rx="31.92" ry="31.92"/>
  <g>
    <polygon class="st0" points="90.7 76.14 90.7 52.82 102.83 45.8 110.66 51.18 110.66 64.55 110.66 83.77 110.66 84.2 78.22 102.98 78.22 117.68 67.57 117.68 58.26 117.68 47.61 117.68 47.61 101.18 47.65 101.16 47.61 101.15 90.7 76.14"/>
    <polygon class="st0" points="78.22 51.18 70.4 46.72 58.26 53.6 58.26 71.61 47.61 77.76 47.61 94.82 78.22 77.06 78.22 51.18"/>
    <polygon class="st0" points="112.16 88.89 90.7 101.37 90.7 117.68 100.01 117.68 110.66 117.68 119.97 117.68 119.97 93.35 112.16 88.89"/>
  </g>
  <g>
    <path d="M169.33,117.68v-61.27h12.25v24.68h25.38v-24.68h12.25v61.27h-12.25v-25.56h-25.38v25.56h-12.25Z"/>
    <path d="M247.85,118.82c-4.14,0-7.92-1.07-11.34-3.19-3.41-2.13-6.13-4.99-8.14-8.58-2.01-3.59-3.02-7.57-3.02-11.95,0-3.27.58-6.35,1.75-9.24,1.17-2.89,2.77-5.43,4.81-7.62,2.04-2.19,4.42-3.91,7.13-5.16,2.71-1.25,5.65-1.88,8.8-1.88,3.97,0,7.06.74,9.28,2.23s3.94,3.46,5.17,5.91v-7.18h11.73v45.52h-11.47v-7.44c-1.23,2.57-2.96,4.64-5.21,6.21-2.25,1.58-5.41,2.36-9.5,2.36ZM249.77,108.14c2.63,0,4.89-.6,6.78-1.79,1.9-1.2,3.37-2.79,4.42-4.77,1.05-1.98,1.58-4.14,1.58-6.48s-.53-4.58-1.58-6.57c-1.05-1.98-2.52-3.59-4.42-4.81-1.9-1.23-4.16-1.84-6.78-1.84s-4.71.6-6.61,1.79c-1.9,1.2-3.37,2.79-4.42,4.77-1.05,1.98-1.58,4.17-1.58,6.56s.52,4.42,1.58,6.43c1.05,2.01,2.52,3.63,4.42,4.86,1.9,1.23,4.1,1.84,6.61,1.84Z"/>
    <path d="M307.2,118.82c-4.08,0-7.25-.79-9.5-2.36-2.25-1.58-3.98-3.65-5.21-6.21v7.44h-11.47v-63.9h11.82v25.38c1.23-2.39,2.95-4.32,5.17-5.78,2.22-1.46,5.28-2.19,9.19-2.19,3.15,0,6.08.63,8.8,1.88s5.09,2.98,7.13,5.16c2.04,2.19,3.65,4.73,4.81,7.62,1.17,2.89,1.75,5.97,1.75,9.24,0,4.38-1.01,8.36-3.02,11.95-2.01,3.59-4.71,6.45-8.1,8.58-3.38,2.13-7.18,3.19-11.38,3.19ZM305.27,108.14c2.51,0,4.71-.61,6.61-1.84,1.9-1.23,3.37-2.84,4.42-4.86,1.05-2.01,1.58-4.16,1.58-6.43,0-2.39-.53-4.58-1.58-6.56-1.05-1.98-2.53-3.57-4.42-4.77-1.9-1.2-4.1-1.79-6.61-1.79s-4.81.61-6.74,1.84-3.41,2.83-4.46,4.81c-1.05,1.99-1.58,4.17-1.58,6.57s.53,4.49,1.58,6.48c1.05,1.98,2.54,3.58,4.46,4.77,1.93,1.2,4.17,1.79,6.74,1.79Z"/>
    <path d="M340.81,68.4c-1.98,0-3.66-.69-5.03-2.06-1.37-1.37-2.06-3.02-2.06-4.95s.68-3.49,2.06-4.86c1.37-1.37,3.05-2.06,5.03-2.06s3.73.69,5.08,2.06c1.34,1.37,2.01,2.99,2.01,4.86,0,1.98-.67,3.65-2.01,4.99s-3.04,2.01-5.08,2.01ZM334.94,117.68v-45.52h11.82v45.52h-11.82Z"/>
    <path d="M376.26,118.82c-4.67,0-8.84-1.08-12.52-3.24s-6.55-5.03-8.62-8.62c-2.07-3.59-3.11-7.57-3.11-11.95s1.04-8.37,3.11-11.99c2.07-3.62,4.95-6.51,8.62-8.67,3.68-2.16,7.85-3.24,12.52-3.24s8.91,1.08,12.56,3.24c3.65,2.16,6.51,5.05,8.58,8.67,2.07,3.62,3.11,7.62,3.11,11.99s-1.04,8.36-3.11,11.95c-2.07,3.59-4.93,6.46-8.58,8.62-3.65,2.16-7.83,3.24-12.56,3.24ZM376.26,108.05c2.51,0,4.7-.6,6.56-1.79,1.87-1.2,3.31-2.79,4.33-4.77,1.02-1.98,1.53-4.14,1.53-6.48s-.51-4.58-1.53-6.56c-1.02-1.98-2.47-3.57-4.33-4.77-1.87-1.2-4.06-1.79-6.56-1.79s-4.7.6-6.57,1.79c-1.87,1.2-3.31,2.79-4.33,4.77-1.02,1.98-1.53,4.17-1.53,6.56s.51,4.5,1.53,6.48c1.02,1.99,2.46,3.58,4.33,4.77,1.87,1.2,4.06,1.79,6.57,1.79Z"/>
    <path d="M427.82,118.82c-4.67,0-8.84-1.08-12.52-3.24s-6.55-5.03-8.62-8.62c-2.07-3.59-3.11-7.57-3.11-11.95s1.04-8.37,3.11-11.99c2.07-3.62,4.95-6.51,8.62-8.67,3.68-2.16,7.85-3.24,12.52-3.24s8.91,1.08,12.56,3.24c3.65,2.16,6.51,5.05,8.58,8.67,2.07,3.62,3.11,7.62,3.11,11.99s-1.04,8.36-3.11,11.95c-2.07,3.59-4.93,6.46-8.58,8.62-3.65,2.16-7.83,3.24-12.56,3.24ZM427.82,108.05c2.51,0,4.7-.6,6.56-1.79,1.87-1.2,3.31-2.79,4.33-4.77,1.02-1.98,1.53-4.14,1.53-6.48s-.51-4.58-1.53-6.56c-1.02-1.98-2.47-3.57-4.33-4.77-1.87-1.2-4.06-1.79-6.56-1.79s-4.7.6-6.57,1.79c-1.87,1.2-3.31,2.79-4.33,4.77-1.02,1.98-1.53,4.17-1.53,6.56s.51,4.5,1.53,6.48c1.02,1.99,2.46,3.58,4.33,4.77,1.87,1.2,4.06,1.79,6.57,1.79Z"/>
  </g>
</svg>