<?xml version="1.0" encoding="UTF-8"?>
<svg id="Layer_1" xmlns="http://www.w3.org/2000/svg" version="1.1" viewBox="0 0 91.33 92.41">
  <!-- Generator: Adobe Illustrator 30.2.1, SVG Export Plug-In . SVG Version: 2.1.1 Build 1)  -->
  <defs>
    <style>
      .st0 {
        fill: #00503b;
      }
    </style>
  </defs>
  <polygon class="st0" points="52.94 40.92 52.94 17.6 65.08 10.58 72.91 15.97 72.91 29.34 72.91 48.56 72.91 48.98 40.47 67.76 40.47 82.47 29.82 82.47 20.51 82.47 9.86 82.47 9.86 65.97 9.9 65.94 9.86 65.93 52.94 40.92"/>
  <polygon class="st0" points="40.47 15.97 32.65 11.51 20.51 18.39 20.51 36.39 9.86 42.55 9.86 59.61 40.47 41.84 40.47 15.97"/>
  <polygon class="st0" points="74.4 53.67 52.94 66.16 52.94 82.47 62.26 82.47 72.91 82.47 82.22 82.47 82.22 58.13 74.4 53.67"/>
</svg>